<?xml version="1.0" encoding="utf-8"?>
<!-- Generator: Adobe Illustrator 27.4.0, SVG Export Plug-In . SVG Version: 6.00 Build 0)  -->
<svg version="1.1" id="Layer_1" xmlns="http://www.w3.org/2000/svg" xmlns:xlink="http://www.w3.org/1999/xlink" x="0px" y="0px"
	 viewBox="0 0 64 64" style="enable-background:new 0 0 64 64;" xml:space="preserve">
<style type="text/css">
	.st0{fill:#FFFFFF;}
	.st1{fill:#39393A;}
	.st2{fill:#727272;}
	.st3{fill:#090E14;}
</style>
<g id="panda">
	<path class="st0" d="M57,38.3C57,50.8,45.8,57,32,57S7,50.8,7,38.3c0.2-5.8,2.2-11.4,5.8-16c2.9-3.8,6.7-6.8,11.1-8.7
		c5.2-2.2,11-2.2,16.2,0c4.4,1.9,8.2,4.9,11.1,8.7C54.8,26.9,56.8,32.5,57,38.3z"/>
	<path class="st1" d="M23.9,13.6c-4.4,1.9-8.2,4.9-11.1,8.7c-4.1-1.8-5.9-6.5-4.1-10.5s6.5-5.9,10.5-4.1C21.7,8.7,23.4,11,23.9,13.6
		z"/>
	<path class="st1" d="M56,15c0,3.2-1.9,6.1-4.8,7.3c-2.9-3.8-6.7-6.8-11.1-8.7c0.8-4.4,4.9-7.3,9.3-6.5C53.2,7.8,56,11.1,56,15z"/>
	<path class="st1" d="M18.7,40c-3.1,0.1-5.7-2.4-5.8-5.6c0-0.5,0-1,0.2-1.4c1-4.8,7.5-8,11.2-8C31.5,25,27.4,40,18.7,40z"/>
	<path class="st1" d="M45.3,40c3.1,0.1,5.7-2.4,5.8-5.6c0-0.5,0-1-0.2-1.4c-1-4.8-7.5-8-11.2-8C32.5,25,36.6,40,45.3,40z"/>
	<circle class="st2" cx="23.5" cy="30.5" r="1.5"/>
	<circle class="st2" cx="40.5" cy="30.5" r="1.5"/>
	<path class="st3" d="M32,50c-0.6,0-1-0.4-1-1v-6c0-0.6,0.4-1,1-1s1,0.4,1,1v6C33,49.6,32.6,50,32,50z"/>
	<path class="st3" d="M37,50H27c-0.6,0-1-0.4-1-1s0.4-1,1-1h10c0.6,0,1,0.4,1,1S37.6,50,37,50z"/>
	<path class="st3" d="M32,43.4L32,43.4l-2.2-1.1C29.3,42,29,41.5,29,41l0,0c0-0.8,0.6-1.4,1.4-1.4h3.2c0.8,0,1.4,0.6,1.4,1.4l0,0
		c0,0.5-0.3,1-0.8,1.2L32,43.4z"/>
	<path class="st3" d="M32,58C16.2,58,6,50.3,6,38.3c0.2-6,2.3-11.9,6-16.6c0.8-1.1,1.8-2.2,2.8-3.1c0.4-0.4,1-0.4,1.4,0
		c0.4,0.4,0.4,1,0,1.4l0,0c-0.9,0.9-1.8,1.9-2.6,2.9c-3.5,4.4-5.4,9.8-5.6,15.4C8,51.4,20.4,56,32,56c2.3,0,4.6-0.2,6.9-0.6
		c0.5-0.1,1.1,0.3,1.2,0.8c0,0,0,0,0,0c0.1,0.5-0.3,1.1-0.8,1.2c0,0,0,0,0,0C36.8,57.8,34.4,58,32,58z"/>
	<path class="st3" d="M47.9,54.4c-0.4,0-0.7-0.2-0.9-0.5c-0.3-0.5-0.1-1.1,0.4-1.4c0,0,0,0,0,0c5.6-3.1,8.6-8,8.6-14.2
		c-0.2-5.6-2.1-11-5.6-15.3c-2.7-3.7-6.4-6.6-10.7-8.4c-5-2.1-10.5-2.1-15.5,0c-1.8,0.8-3.6,1.7-5.1,2.9c-0.4,0.3-1.1,0.2-1.4-0.2
		c-0.3-0.4-0.2-1.1,0.2-1.4c1.7-1.3,3.6-2.4,5.6-3.2c5.4-2.3,11.6-2.3,17,0c4.6,1.9,8.5,5,11.5,9c3.7,4.7,5.8,10.6,6,16.6
		c0,7-3.3,12.5-9.6,16C48.2,54.4,48.1,54.4,47.9,54.4z"/>
	<path class="st3" d="M42.9,56.5c-0.6,0.1-1.1-0.3-1.1-0.9s0.3-1.1,0.9-1.1c0.4-0.1,0.9-0.3,1.3-0.4c0.5-0.2,1.1,0.1,1.3,0.6
		c0.2,0.5-0.1,1.1-0.6,1.3c-0.5,0.2-0.9,0.3-1.4,0.5C43.1,56.5,43,56.5,42.9,56.5z"/>
	<path class="st3" d="M12.8,23.3c-0.1,0-0.3,0-0.4-0.1c-4.6-2-6.6-7.3-4.7-11.8S15,4.8,19.6,6.8c2.8,1.2,4.8,3.7,5.3,6.7
		c0.1,0.5-0.2,0.9-0.6,1.1c-1.8,0.8-3.6,1.7-5.1,2.9c-0.4,0.3-1.1,0.2-1.4-0.2c-0.3-0.4-0.2-1.1,0.2-1.4c1.5-1.1,3.1-2.1,4.8-2.9
		c-1.1-3.7-4.9-5.9-8.7-4.8s-5.9,4.9-4.8,8.7c0.5,1.8,1.7,3.3,3.3,4.2c0.7-0.9,1.5-1.7,2.3-2.5c0.4-0.4,1.1-0.4,1.4,0
		c0.4,0.4,0.4,1.1,0,1.5l0,0c-0.9,0.9-1.8,1.9-2.6,2.9C13.4,23.2,13.1,23.3,12.8,23.3z"/>
	<path class="st3" d="M51.2,23.3c-0.3,0-0.6-0.1-0.8-0.4c-2.7-3.7-6.4-6.6-10.7-8.4c-0.4-0.2-0.7-0.6-0.6-1.1
		c0.3-1.9,1.3-3.6,2.6-4.9c0.4-0.4,1-0.4,1.4,0s0.4,1,0,1.4c-0.9,0.8-1.5,1.9-1.9,3c4,1.8,7.5,4.6,10.2,8c3.3-2,4.4-6.3,2.4-9.6
		C52.6,9.3,50.4,8,48,8c-0.6,0-1.3,0.1-1.9,0.2c-0.5,0.1-1.1-0.2-1.2-0.7c0-0.1,0-0.2,0-0.3c0-0.5,0.3-0.9,0.8-1
		C46.4,6.1,47.2,6,48,6c5,0,9,4,9,9c0,3.6-2.1,6.8-5.4,8.3C51.5,23.3,51.3,23.3,51.2,23.3z"/>
	<path class="st3" d="M18.7,41c-3.7,0.1-6.7-2.9-6.8-6.6c0-0.5,0.1-1.1,0.2-1.6c1.1-5.3,8.1-8.8,12.2-8.8c1.7-0.1,3.3,0.9,4.1,2.5
		c1.3,2.8,0.3,7.4-2.3,10.7c-0.3,0.5-0.9,0.6-1.4,0.3c-0.5-0.3-0.6-0.9-0.3-1.4c0,0,0.1-0.1,0.1-0.1c2.1-2.7,3.1-6.5,2.1-8.6
		c-0.4-0.9-1.3-1.4-2.3-1.3c-3.4,0-9.4,3.1-10.2,7.2c-0.3,1.4,0,2.9,0.9,4c0.9,1.1,2.3,1.8,3.7,1.8c1.1,0,2.2-0.3,3.1-0.8
		c0.5-0.3,1.1-0.1,1.4,0.4c0.3,0.5,0.1,1.1-0.4,1.4C21.6,40.6,20.2,41,18.7,41z"/>
	<path class="st3" d="M45.3,41C39,41,35,34.1,35,29.3c-0.1-1.3,0.3-2.6,1.1-3.7c0.9-1.1,2.2-1.7,3.6-1.6c4.1,0,11.1,3.5,12.2,8.8
		c0.8,3.6-1.4,7.2-5,8C46.3,40.9,45.8,41,45.3,41z M39.7,26c-0.8-0.1-1.5,0.3-2,0.9c-0.5,0.7-0.7,1.6-0.7,2.5c0,3.8,3.3,9.7,8.3,9.7
		c1.4,0,2.8-0.6,3.7-1.7c0.9-1.1,1.2-2.6,0.9-4C49,29.1,43.1,26,39.7,26z"/>
	<path class="st3" d="M32,44.4c-0.2,0-0.3,0-0.5-0.1l-2.2-1.1c-1.2-0.6-1.6-2-1-3.2c0.4-0.8,1.2-1.3,2.1-1.3h3.2
		c1.3,0,2.4,1.1,2.4,2.4c0,0.9-0.5,1.7-1.3,2.1l-2.2,1.1C32.3,44.3,32.2,44.4,32,44.4z M30.4,40.6c-0.2,0-0.4,0.2-0.4,0.4
		c0,0,0,0,0,0c0,0.1,0.1,0.3,0.2,0.3l1.8,0.9l1.8-0.9c0.1-0.1,0.2-0.2,0.2-0.3c0-0.2-0.2-0.4-0.4-0.4c0,0,0,0,0,0L30.4,40.6z"/>
</g>
</svg>
